<svg xmlns="http://www.w3.org/2000/svg" xmlns:xlink="http://www.w3.org/1999/xlink" version="1.1" x="0px" y="0px" viewBox="22.16666603088379 23.299999237060547 55.546424865722656 53.59999465942383" enable-background="new 0 0 100 100" xml:space="preserve"><path d="M22.3,63.8c3.6-3.1,7.2-5.9,11.1-8.7c-0.2,0.1,0,2.3,0,2.7c0,0.4,0.3,2.4,0,2.7c-2,1.4-4,2.9-6,4.5c10.6-1.7,21-5.1,30-10.9  c4.8-3.1,9.1-6.8,12.7-11.2c1.9-2.3,3.6-4.8,4.9-7.5c0.7-1.5,1.4-3,1.8-4.5c0.2-0.8,0.3-1.5,0.5-2.3c-0.3-1.7,0.3-3.6,0-5.3  c0.7,4.6,0.6,10-1,14.4c-1.8,5.1-5.2,9.6-8.9,13.5c-7,7.3-16.1,12.4-25.7,15.6c-3.4,1.1-6.8,2-10.2,2.8c1,0.6,1.9,1.3,2.9,1.9  c0.2,0.2,0,2.3,0,2.7c0,0.3-0.3,2.5,0,2.7c-3.9-2.7-7.9-5.1-12.1-7.2c-0.2-0.1,0-2.1,0-2.6c0-0.2,0-0.4,0-0.4  C22.3,66.1,22,64.1,22.3,63.8z" fill="#FFFFFF"></path></svg>